<svg width="857" height="109" viewBox="0 0 857 109" fill="none" xmlns="http://www.w3.org/2000/svg">
<path fill-rule="evenodd" clip-rule="evenodd" d="M221.95 25.7619H247.013V74.9003H258.568V52.7085C258.568 27.6987 269.767 25.82 273.698 25.82C275.843 25.82 278.106 26.2897 280.013 27.3465V17.4C278.345 16.6955 275.843 16 273.698 16C266.312 16 260.513 18.4003 258.568 24.46V16.0003H249.754V16.0002H221.95V0.900024H210.976V16.0002H202.361L206.196 25.7619H210.976V37.9308L225.426 74.7108C226.479 74.8538 227.55 74.9207 228.624 74.9207H235.883V65.4027C234.308 65.4027 233.403 65.3817 232.479 65.3602H232.479H232.478H232.478H232.478C231.514 65.3379 230.528 65.315 228.737 65.315C225.004 65.315 221.95 62.8288 221.95 56.6133V25.7619ZM726.013 16.0003H737.568V24.46C739.513 18.4003 745.312 16 752.698 16C754.843 16 757.345 16.6955 759.013 17.4V27.3465C757.106 26.2897 754.843 25.82 752.698 25.82C748.767 25.82 737.568 27.6987 737.568 52.7085V74.9003H726.013V16.0003ZM427.066 25.7619H413.262V56.6133C413.262 62.8288 416.317 65.315 420.05 65.315C421.84 65.315 422.826 65.3379 423.791 65.3602H423.791H423.791H423.792C424.716 65.3817 425.621 65.4027 427.196 65.4027V74.9207H419.937C411 74.9207 402.289 70.2874 402.289 55.8223V25.7619H393.013V16.0002H402.289V0.900024H413.262V16.0002H427.066V25.7619ZM650.262 25.7619H666.517C661.856 30.98 659.013 37.8628 659.013 45.4C659.013 61.7889 672.273 74.9 688.456 74.9C704.752 74.9 718.013 61.6759 718.013 45.4C718.013 29.2372 704.752 15.9 688.456 15.9C687.638 15.9 686.827 15.9338 686.025 16.0002H650.59C651.474 12.1204 654.041 10.5058 657.05 10.5058C658.841 10.5058 659.827 10.4829 660.791 10.4606C661.716 10.4391 662.621 10.4181 664.196 10.4181V0.90007H656.937C648.881 0.90007 641.009 4.66447 639.535 16.0002H616.262V0.900024H605.289V16.0002H596.013V25.7619H605.289V55.8223C605.289 70.2874 614 74.9207 622.937 74.9207H630.196V65.4027C628.621 65.4027 627.716 65.3817 626.792 65.3602H626.791C625.826 65.3378 624.841 65.315 623.05 65.315C619.317 65.315 616.262 62.8288 616.262 56.6133V25.7619H639.289V31.8206V32.0589V74.9208H650.262V32.0589V31.8206V25.7619ZM669.913 45.5131C669.913 34.5494 678.23 25.6203 688.456 25.6203C698.795 25.6203 707.112 34.5494 707.112 45.5131C707.112 56.3636 698.795 65.1797 688.456 65.1797C678.23 65.1797 669.913 56.3636 669.913 45.5131ZM535.262 74.92V0.900024H524.289V74.92H535.262ZM283.133 15.9H294.023V45.43H283.133V15.9ZM283.128 45.4301C283.129 61.5789 294.226 74.9531 311.168 74.9531C318.698 74.9531 326.229 72.377 331.579 64.6486V73.6651H342.577V45.922C342.577 45.758 342.576 45.594 342.574 45.4301H342.573V15.9H331.773L331.773 45.7424C331.533 56.9745 323.745 65.144 312.456 65.144C300.667 65.144 294.028 56.1294 294.027 45.4301H283.128ZM370.712 15.9C378.539 15.9 386.367 19.1698 389.537 29.3752L379.827 31.5551C378.044 26.4028 374.477 25.3129 371.009 25.3129C365.956 25.3129 362.686 28.4835 362.686 32.5459C362.686 36.2119 366.055 38.1936 369.423 39.2835L377.548 41.9587C388.249 45.2284 391.123 51.966 391.123 57.911C391.123 68.6119 381.809 74.8541 370.811 74.8541C360.902 74.8541 351.589 69.8009 349.013 60.0908L358.723 57.7128C360.11 62.2706 365.163 65.5403 370.91 65.5403C376.557 65.5403 380.62 62.1715 380.62 57.8119C380.62 53.9477 377.449 52.0651 373.486 50.678L365.956 48.1018C356.939 45.4266 352.084 40.5716 352.084 32.744C352.084 23.133 359.515 15.9 370.712 15.9ZM494.521 15.9H494.52C493.331 15.9 492.044 15.9 490.855 15.9991C483.919 16.4945 475.992 18.4762 470.146 25.6101C470.146 25.6101 467.471 28.4835 465.688 32.744C464.697 35.0229 464.003 37.4009 463.607 39.878C463.561 40.0636 463.536 40.2493 463.513 40.4248V40.4251L463.512 40.4257C463.486 40.6244 463.461 40.8101 463.409 40.9679C463.409 41.1165 463.384 41.2403 463.359 41.3642C463.335 41.488 463.31 41.6119 463.31 41.7605C463.31 42.0578 463.31 42.355 463.211 42.5532C463.211 42.8504 463.211 43.1477 463.112 43.3458C463.112 43.7422 463.087 44.1633 463.062 44.5844C463.037 45.0055 463.013 45.4266 463.013 45.8229V73.566V108.74H474.011V64.4504C479.46 72.1788 486.891 74.7549 494.521 74.7549C511.464 74.7549 522.561 61.3788 522.561 45.2284C522.561 29.078 511.464 15.9 494.521 15.9ZM493.134 65.144C481.739 65.144 473.912 56.821 473.812 45.3275C473.912 33.933 481.739 25.511 493.134 25.511C504.924 25.511 511.563 34.5275 511.563 45.3275C511.563 56.1275 504.924 65.144 493.134 65.144ZM812.076 74.6475H806.589V47.1864C806.159 31.0991 798.779 27.1359 792.783 27.1359C786.9 27.1359 778.986 30.5741 778.986 48.4295V74.6475H768.013V41.9982C769.003 22.6771 782.875 16.9 792.783 16.9C798.233 16.9 807.467 18.9318 812.104 28.7659C816.742 18.9342 824.985 16.9 831.921 16.9C845.27 16.9 856.139 27.1359 856.139 42.779V74.6475H845.165V47.1864C844.801 32.09 837.916 27.1359 831.921 27.1359C826.604 27.1359 818.128 29.896 817.562 47.1864V74.6475H812.076ZM537.013 45.4266C537.013 61.577 548.11 74.9531 565.053 74.9531C572.583 74.9531 580.113 72.377 585.464 64.6485V73.665H596.462V45.922C596.462 41.4633 595.768 37.0046 593.886 32.744C592.102 28.4835 589.427 25.6101 589.427 25.6101C582.491 17.089 572.583 15.9 565.053 15.9C548.011 15.9 537.013 29.2761 537.013 45.4266ZM585.662 45.4266C585.563 56.821 577.735 65.144 566.341 65.144C554.55 65.144 547.912 56.1275 547.912 45.4266C547.912 34.7257 554.55 25.7092 566.341 25.7092C577.735 25.7092 585.563 34.0321 585.662 45.4266Z" fill="#1E0513"/>
<path fill-rule="evenodd" clip-rule="evenodd" d="M141.671 69.744V23.1H124.471V69.2841L99.1774 4.9H82.6774L65.8 48.4947V35.8H32.6V49.2001H49.1V58.3001C45.9 59.7001 41.4 60.3001 38 60.3001C26 60.3001 17.8 51.7001 17.8 40.1C17.8 29.8 24.2 19.5 39 19.5C44.7 19.5 50.3 21.9 54.2 25L63.5 12.7C56.4 7.30004 49 3.80005 38.4 3.80005C14.9 3.80005 0 20.4001 0 39.9001C0 59.4776 15.5054 74.7097 37.5851 74.8983L37.5774 74.9H37.9528C37.9685 74.9 37.9843 74.9 38 74.9C38.0185 74.9 38.0371 74.9 38.0556 74.9H73.8774L78.4774 62.5H103.277L108.077 74.9H124.471H126.677H139.675H141.671H157.975L162.575 62.5H187.375L192.175 74.9H210.775L183.275 4.9H166.775L141.671 69.744ZM111.171 8.3C111.171 13 115.071 16.4 120.471 16.4C125.471 16.4 129.571 13 129.571 8.3C129.571 3.59999 125.471 0 120.471 0C115.071 0 111.171 3.59999 111.171 8.3ZM136.771 8.3C136.771 13 140.671 16.4 145.871 16.4C151.071 16.4 155.171 13 155.171 8.3C155.171 3.59999 151.071 0 145.871 0C140.671 0 136.771 3.59999 136.771 8.3ZM90.9774 23.7L99.2774 48.3H82.2774L90.9774 23.7ZM183.375 48.3L175.075 23.7L166.375 48.3H183.375Z" fill="url(#paint0_linear)"/>
<defs>
<linearGradient id="paint0_linear" x1="210.775" y1="37.45" x2="-9.72307e-07" y2="37.45" gradientUnits="userSpaceOnUse">
<stop stop-color="#9D2267"/>
<stop offset="1" stop-color="#ED4D5B"/>
</linearGradient>
</defs>
</svg>
