<svg width="578" height="117" viewBox="0 0 578 117" fill="none" xmlns="http://www.w3.org/2000/svg">
<path fill-rule="evenodd" clip-rule="evenodd" d="M235 54.1308C235 70.4959 246.179 84 263.289 84H263.295H263.3C266.31 84 269.32 83.5894 272.193 82.6058C276.556 81.1136 280.599 78.3067 283.9 73.636V82.6913H283.935V82.7411H295V82.6913V54.5034V0H283.935V31.8412C278.632 25.6525 269.479 24 263.3 24C246.1 24 235 37.5906 235 54L235 54.0655L235 54.1308ZM284.1 54C284.073 50.868 283.475 47.9644 282.389 45.3948C279.436 38.5493 273.005 34.1035 264.658 34.1035C252.795 34.1035 246.065 43.2589 246.065 54.1308C246.065 58.1644 246.991 61.9617 248.762 65.1428C251.774 70.4667 257.175 74.0336 264.6 74.0336C276.1 74.0336 284 65.5772 284.1 54ZM228.748 83H225.501L217.252 62.0033V24.1H228.748V83ZM215 10.8354C215 15.214 218.437 18.5556 222.941 18.5556C227.444 18.5556 231 15.214 231 10.8354C231 6.45679 227.444 3 222.941 3C218.437 3 215 6.45679 215 10.8354ZM481.748 83H470.252V33.8619H446.25V64.7133C446.25 70.9288 449.304 73.415 453.037 73.415C454.828 73.415 455.814 73.4378 456.778 73.4602H456.778H456.779H456.779C457.703 73.4816 458.608 73.5026 460.183 73.5026V83.0207H452.924C443.987 83.0207 435.276 78.3874 435.276 63.9222V33.8619H426V24.1002H435.276V9H446.25V24.1002H481.75V33.8619H481.748V83ZM468 10.8354C468 15.214 471.437 18.5556 475.941 18.5556C480.444 18.5556 484 15.214 484 10.8354C484 6.45679 480.444 3 475.941 3C471.437 3 468 6.45679 468 10.8354ZM411.175 83H422V50.4403C422 31.8513 409.626 24 397.573 24C388.422 24 382 27.5 377.825 34.3V25.2701H367V83H377.825V56.2133C377.825 37.9706 388.5 33.9296 395.792 33.9296C401.707 33.9296 411.175 38.2016 411.175 50.4403V83ZM508.25 33.8619H518.464L540.028 81.0154L526.437 116.84H538.142L577.102 24.1001H564.234L546.063 68.4705L526.64 24.1001H514L508.25 24.1002V9H497.276V24.1002H488V33.8619H497.276V63.9222C497.276 78.3874 505.987 83.0207 514.924 83.0207H522.183V73.5026C520.608 73.5026 519.703 73.4816 518.779 73.4602H518.779C517.814 73.4378 516.828 73.415 515.037 73.415C511.304 73.415 508.25 70.9288 508.25 64.7133V33.8619ZM352.183 66.8736C346.458 71.8161 340.275 74.1149 333.405 74.1149C320.695 74.1149 311.763 66.1839 312.107 55.0345H361C361 33.7701 346.916 24 331.802 24C314.053 24 301 37.4483 301 54.2299C301 70.5517 313.366 84 333.29 84C341.763 84 351.038 81.5862 358.366 73.3103L352.183 66.8736ZM332.031 33.7701C338.328 33.7701 346.458 35.954 349.55 46.4138H313.137C316.916 36.4138 325.275 33.7701 332.031 33.7701Z" fill="#FF9DA6"/>
<path fill-rule="evenodd" clip-rule="evenodd" d="M141.671 77.8441V31.2001H124.471V77.3842L99.1774 13.0001H82.6774L65.8 56.5948V43.9001H32.6V57.3002H49.1V66.4002C45.9 67.8002 41.4 68.4002 38 68.4002C26 68.4002 17.8 59.8001 17.8 48.2001C17.8 37.9001 24.2 27.6001 39 27.6001C44.7 27.6001 50.3 30.0001 54.2 33.1001L63.5 20.8001C56.4 15.4001 49 11.9001 38.4 11.9001C14.9 11.9001 0 28.5001 0 48.0001C0 67.5777 15.5054 82.8098 37.5851 82.9984L37.5774 83.0001H37.9528C37.9685 83.0001 37.9843 83.0001 38 83.0001C38.0185 83.0001 38.0371 83.0001 38.0556 83.0001H73.8774L78.4774 70.6001H103.277L108.077 83.0001H124.471H126.677H139.675H141.671H157.975L162.575 70.6001H187.375L192.175 83.0001H210.775L183.275 13.0001H166.775L141.671 77.8441ZM111.171 16.4001C111.171 21.1001 115.071 24.5001 120.471 24.5001C125.471 24.5001 129.571 21.1001 129.571 16.4001C129.571 11.7001 125.471 8.1001 120.471 8.1001C115.071 8.1001 111.171 11.7001 111.171 16.4001ZM136.771 16.4001C136.771 21.1001 140.671 24.5001 145.871 24.5001C151.071 24.5001 155.171 21.1001 155.171 16.4001C155.171 11.7001 151.071 8.1001 145.871 8.1001C140.671 8.1001 136.771 11.7001 136.771 16.4001ZM90.9774 31.8001L99.2774 56.4001H82.2774L90.9774 31.8001ZM183.375 56.4001L175.075 31.8001L166.375 56.4001H183.375Z" fill="white"/>
</svg>
